<svg width="36" height="39" viewBox="0 0 36 39" fill="none" xmlns="http://www.w3.org/2000/svg">
<path d="M9.87884 31.9202C7.79543 31.9202 5.83593 31.109 4.36352 29.6357C1.32239 26.5943 1.32239 21.6478 4.36352 18.608L10.7508 12.2224L17.8575 19.3285C18.3975 18.879 18.9707 18.4703 19.5863 18.1128L12.2216 10.7508L18.6085 4.36591C20.0822 2.89265 22.0401 2.08275 24.1235 2.08275C26.2082 2.08275 28.1664 2.89265 29.6385 4.36591C32.6796 7.40607 32.6796 12.3538 29.6385 15.394L28.3379 16.6938C29.1116 16.8535 29.8616 17.0917 30.5811 17.392L31.1105 16.8643C34.9632 13.0126 34.9632 6.74533 31.1105 2.89396C29.2444 1.0284 26.763 0 24.1231 0C21.4833 0 19.0019 1.0284 17.1357 2.89396L2.88945 17.136C-0.963151 20.9871 -0.963151 27.2547 2.88945 31.106C4.75561 32.9719 7.23834 34 9.87686 34C11.3674 34 12.802 33.6609 14.1097 33.0413C13.8682 32.3684 13.6979 31.682 13.5756 30.9884C12.4536 31.5963 11.1912 31.9202 9.87884 31.9202Z" fill="#A61E61"/>
<path d="M34.9649 23.3512C33.165 19.4931 29.2517 17 24.9937 17C23.3829 17 21.8231 17.3475 20.3533 18.0346C17.6917 19.2743 15.6728 21.4775 14.6687 24.2389C13.665 26.9979 13.7944 29.9851 15.0354 32.647C16.8335 36.5048 20.7485 39 25.0066 39C26.6173 39 28.1771 38.6525 29.6452 37.9654C32.3064 36.7257 34.3257 34.5222 35.3294 31.7611C36.3356 29.0011 36.2058 26.0149 34.9649 23.3512ZM16.7455 24.9943C17.5476 22.7894 19.1615 21.0277 21.2883 20.0364C22.4622 19.4889 23.7094 19.2098 24.994 19.2098C27.3911 19.2098 29.6504 20.2028 31.279 21.8672L16.2655 28.8685C16.134 27.5729 16.2878 26.255 16.7455 24.9943ZM17.0386 31.713C16.9395 31.5001 16.8575 31.2855 16.7762 31.0709L32.64 23.6719C32.7537 23.8718 32.8625 24.077 32.9602 24.287C33.0597 24.4999 33.1413 24.7162 33.2226 24.9308L17.3589 32.3295C17.2451 32.1296 17.1377 31.9241 17.0386 31.713ZM33.2547 31.0064C32.4523 33.2116 30.8384 34.9734 28.712 35.9647C27.5384 36.5125 26.2911 36.7909 25.0066 36.7909C22.6094 36.7909 20.3501 35.7979 18.7216 34.1345L33.7351 27.1326C33.8663 28.4267 33.7127 29.7464 33.2547 31.0064Z" fill="#A61E61"/>
<circle cx="25" cy="28" r="9.85" stroke="#333F48" stroke-width="2.3"/>
</svg>
