<svg width="44" height="44" viewBox="0 0 44 44" fill="none" xmlns="http://www.w3.org/2000/svg">
<path d="M6.61438 44C2.97203 43.9959 0.00448269 41.0283 0 37.3849V15.0067C0.00448269 11.364 2.97203 8.39642 6.61508 8.39229H11.1891V3.81753C11.1916 1.71446 12.9043 0.00172411 15.007 0H28.9934C31.0961 0.00172411 32.8085 1.71481 32.8105 3.81788V8.39229H37.3849C41.0276 8.39642 43.9959 11.3636 44 15.007V37.3853C43.9959 41.028 41.028 43.9959 37.3849 44H6.61438ZM7.63506 41.9597H36.3646V10.4326H7.63506V41.9597ZM38.4049 41.8576L38.9091 41.68C40.7276 41.0397 41.9531 39.3142 41.9597 37.3867V15.0067C41.9531 13.0781 40.728 11.3522 38.9091 10.7122L38.4049 10.5347V41.8576ZM5.09061 10.7122C3.27236 11.3522 2.04687 13.0781 2.04067 15.0056V37.3853C2.04687 39.3145 3.27236 41.0397 5.09061 41.6797L5.59475 41.8573V10.5347L5.09061 10.7122ZM15.0063 2.04066C14.0277 2.04238 13.2312 2.83892 13.2298 3.81718V8.39229H30.7706V3.81753C30.7688 2.83893 29.9719 2.04238 28.9937 2.04066H15.0063Z" fill="#A61E61"/>
<path d="M21.9998 31.2889C21.42 31.2889 20.9483 30.8597 20.9483 30.3323V27.3564H17.6741C17.0943 27.3564 16.6222 26.9273 16.6222 26.4002C16.6222 25.8724 17.0943 25.4432 17.6741 25.4432H20.9483V22.4677C20.9483 21.9403 21.42 21.5111 21.9998 21.5111C22.5803 21.5111 23.0517 21.9403 23.0517 22.4677V25.4432H26.3262C26.906 25.4432 27.3778 25.8724 27.3778 26.4002C27.3778 26.9273 26.906 27.3564 26.3262 27.3564H23.0517V30.3323C23.0517 30.8597 22.5803 31.2889 21.9998 31.2889Z" fill="#333F48"/>
</svg>
