<svg width="48" height="46" viewBox="0 0 48 46" fill="none" xmlns="http://www.w3.org/2000/svg">
<path d="M4.76924 46C4.4444 45.9927 4.14571 45.8632 3.92236 45.6347L0.351889 42.0672C-0.117486 41.5951 -0.117489 40.8264 0.353038 40.3538L12.9473 27.8536L12.7517 27.539C10.9826 24.6892 10.0446 21.4111 10.0396 18.0584C10.0246 8.11602 18.1062 0.0153669 28.055 0C31.5678 0.0161352 34.976 1.04764 37.9099 2.9831C45.8059 8.19248 48.3307 18.713 43.6585 26.9347L43.4613 27.2808L43.1222 27.0715C42.6663 26.7902 42.1823 26.5478 41.6838 26.3515L41.2697 26.1879L41.4919 25.8021C42.8497 23.4437 43.567 20.7553 43.5666 18.028C43.5643 9.42835 36.5618 2.43182 27.9566 2.43182C23.8344 2.43182 19.8184 4.10027 16.938 7.0096C15.2442 8.70304 13.9491 10.801 13.1926 13.0753L13.1023 13.3465L30.1439 30.5094L30.017 30.7576C29.7768 31.227 29.5757 31.7234 29.4185 32.232L29.2301 32.841L12.5103 16.1322L12.4461 17.1617C12.2204 20.7726 13.2737 24.368 15.4126 27.2862C16.3725 28.5467 17.4958 29.6696 18.7536 30.6262C21.4195 32.559 24.5529 33.5793 27.8186 33.5793C28.0969 33.5793 28.3764 33.5716 28.6562 33.5567L29.1064 33.5328L29.0587 33.9808C29.0241 34.3085 29.0064 34.6396 29.0064 34.9654C29.0064 35.1952 29.0153 35.4276 29.0322 35.6577L29.0622 36.0561L28.6627 36.0703C28.4809 36.0772 28.3006 36.0803 28.1215 36.0803L27.96 36.0791C24.5891 36.0753 21.2977 35.1345 18.4403 33.358L18.1266 33.1633L5.63264 45.632C5.40391 45.8648 5.10099 45.995 4.77808 46H4.76924ZM2.93095 41.2194L4.76693 43.0546L16.1699 31.6773L15.1627 30.7368C15.1001 30.6715 15.0344 30.5955 14.9671 30.5179L14.7718 30.2954L14.3074 29.8333L2.93095 41.2194Z" fill="#A61E61"/>
<path d="M38 45C32.486 45 28 40.5144 28 35.0002C28 29.4859 32.486 25 38 25C43.514 25 48 29.4859 48 35.0002C48 40.5144 43.5144 45 38 45ZM38 27.1101C33.6492 27.1101 30.1098 30.6498 30.1098 35.0002C30.1098 39.3506 33.6492 42.8899 38 42.8899C42.3508 42.8899 45.8902 39.3506 45.8902 35.0002C45.8902 30.6498 42.3508 27.1101 38 27.1101Z" fill="#333F48"/>
</svg>
