<svg width="45" height="50" viewBox="0 0 45 50" fill="none" xmlns="http://www.w3.org/2000/svg">
<path d="M43.2335 30.0526C41.845 26.7725 38.5162 25.0582 35.9471 25.0582C34.3936 25.0582 33.4793 25.4103 32.6744 25.7217C32.2507 25.8842 31.8853 26.0251 31.4598 26.1037C31.2239 23.9313 30.0977 22.0037 28.4052 20.9424C28.0319 20.7031 27.5293 20.8155 27.2913 21.1936C27.055 21.5694 27.1657 22.0657 27.5453 22.3031C28.7721 23.0747 29.6053 24.4755 29.8314 26.0835C29.4523 26.0009 29.1133 25.8723 28.7258 25.7217C27.9186 25.4103 27.0022 25.0582 25.4505 25.0582C24.5847 25.0582 23.6343 25.2694 22.7002 25.6532V22.9457C22.7002 22.9298 22.6922 22.9154 22.6904 22.8996L22.6922 20.6624C22.6944 19.1592 22.3391 17.7884 21.6108 16.4698C21.2335 15.7923 20.8702 15.109 20.503 14.4257C19.9176 13.3363 19.3348 12.2447 18.7132 11.1737C18.1829 10.2612 17.9647 9.39131 17.9868 8.44028C19.4133 7.86548 20.372 6.40633 20.372 4.80663C20.372 2.61988 19.1694 1.23928 17.1536 1.04432C17.0671 1.01621 16.9763 1 16.8873 1L6.62512 1.01838C4.53072 1.23929 3.3303 2.61988 3.3303 4.80699C3.3303 6.40669 4.28831 7.86585 5.67288 8.44064C5.73584 9.38951 5.51768 10.2598 4.98693 11.1741C4.36538 12.2455 3.78253 13.3367 3.19715 14.4279C2.82993 15.1112 2.46671 15.7948 2.09153 16.4723C1.36072 17.7866 1.00543 19.1596 1.0076 20.6649C1.00977 21.4127 1.0076 22.1601 1.0076 22.9079C1.0076 22.9219 1 22.932 1 22.946V36.4925C1 36.5026 1.00579 36.5127 1.00579 36.5228L1 43.3522C1 48.2183 4.69061 48.8977 5.87873 48.9921C5.91708 48.996 5.95327 49 5.99161 49H17.7089C17.7509 49 17.7918 48.9957 17.8341 48.9899C19.6843 48.849 21.1416 47.9409 21.9581 46.4976C23.4234 48.1174 25.0214 48.9978 26.5786 48.9978C27.7533 48.9978 28.3889 48.809 28.9519 48.6422C29.4443 48.4976 29.8679 48.3708 30.699 48.3708C31.5307 48.3708 31.9566 48.4976 32.4486 48.6422C33.0097 48.809 33.649 48.9978 34.8216 48.9978C36.8436 48.9978 38.934 47.5308 40.7097 44.8611C43.316 40.9485 45.0877 34.4265 43.2335 30.0526ZM4.94387 4.80699C4.94387 3.02025 6.00174 2.7024 6.79442 2.61808C6.81071 2.61627 6.83676 2.61411 6.86281 2.60834H16.8327C16.8609 2.61231 16.8855 2.61627 16.901 2.61808C17.6959 2.7024 18.7516 3.02025 18.7516 4.80699C18.7516 5.70324 18.2509 6.50507 17.5085 6.87121H6.18843C5.44423 6.50471 4.94387 5.70504 4.94387 4.80699ZM2.62335 20.6627C2.62154 19.4367 2.90989 18.3192 3.50323 17.2464C3.88274 16.5631 4.24961 15.8733 4.62117 15.184C5.19605 14.1086 5.77128 13.0332 6.38452 11.9781C7.04442 10.8364 7.33096 9.68861 7.28248 8.47884H16.417C16.3663 9.69258 16.6529 10.8404 17.3131 11.9802C17.9264 13.0354 18.5016 14.1104 19.0768 15.1858C19.4477 15.8755 19.8149 16.5649 20.1944 17.2482C20.7899 18.3235 21.0779 19.4411 21.0761 20.6631V22.1442H2.62373C2.62336 21.6498 2.62552 21.1572 2.62335 20.6627ZM2.62192 34.7497C2.6259 31.0836 2.6259 27.4176 2.62373 23.7515H21.0743L21.0725 26.5411C19.8677 27.3736 18.804 28.5391 18.1604 30.0544C17.46 31.7107 17.2806 33.6762 17.4665 35.6903H2.62192V34.7497ZM17.7085 47.3862C17.6962 47.388 17.6825 47.3902 17.6662 47.3902H6.02997C6.01369 47.3881 5.99959 47.388 5.98729 47.3862C4.72645 47.2897 2.61359 46.6385 2.61359 43.3544L2.61792 37.2965H17.7006C18.2111 40.0804 19.3268 42.8279 20.6868 44.8676C20.7313 44.9361 20.7798 44.9926 20.8243 45.0586C20.2248 46.8976 18.6387 47.3156 17.7085 47.3862ZM39.3631 43.9775C37.9163 46.148 36.2619 47.392 34.819 47.392C33.8806 47.392 33.4287 47.2598 32.9059 47.1048C32.3697 46.9462 31.7641 46.7653 30.6968 46.7653C29.6295 46.7653 29.0239 46.9462 28.4892 47.1048C27.9646 47.2576 27.5149 47.392 26.5764 47.392C25.1339 47.392 23.4791 46.1502 22.0345 43.9814C19.625 40.3658 18.0736 34.4023 19.6452 30.6822C20.202 29.3676 21.1427 28.3668 22.1958 27.6914C22.2096 27.6853 22.2197 27.6752 22.2338 27.6691C23.2812 27.0078 24.4393 26.6684 25.448 26.6684C26.7016 26.6665 27.3998 26.9376 28.1397 27.223C28.8524 27.4965 29.5865 27.7797 30.6961 27.7797C31.8057 27.7797 32.5423 27.4965 33.2547 27.223C33.9931 26.9376 34.6935 26.6684 35.9446 26.6684C37.9825 26.6684 40.6297 28.0471 41.7455 30.6822C43.3204 34.4002 41.7723 40.3615 39.3631 43.9775Z" fill="#A61E61" stroke="#A61E61" stroke-width="0.3" stroke-miterlimit="10"/>
<path d="M12.6137 26.2908C12.3207 25.9031 11.681 25.9031 11.3859 26.2908C10.8271 27.0336 9 29.5684 9 30.966C9 32.6391 10.3453 34 11.999 34C13.6526 34 15 32.6391 15 30.966C14.9997 29.5663 13.1726 27.0319 12.6137 26.2908ZM11.999 32.4402C11.1955 32.4402 10.542 31.7791 10.542 30.966C10.542 30.4846 11.2204 29.2485 11.999 28.0963C12.7779 29.2485 13.4563 30.4867 13.4563 30.966C13.4559 31.7795 12.8028 32.4402 11.999 32.4402Z" fill="#333F48"/>
</svg>
